<svg width="24" height="24" viewBox="0 0 20 20" fill="none" xmlns="http://www.w3.org/2000/svg">
<path d="M6.819 17.259C6.892 17.53 7.006 17.779 7.154 17.999H6.998C5.894 17.999 4.998 17.104 4.997 15.999L4.992 10.464L6.82 17.26L6.819 17.259ZM4 16.499C4 16.651 4.014 16.8 4.04 16.945L3.984 16.93C3.47149 16.7927 3.03448 16.4575 2.76897 15.9981C2.50346 15.5387 2.43118 14.9927 2.568 14.48L3.994 9.14002L4 16.499ZM7.655 16.517C7.79279 17.0294 8.12832 17.4661 8.58789 17.7312C9.04746 17.9964 9.59348 18.0682 10.106 17.931L15.522 16.48C15.7758 16.4121 16.0137 16.2949 16.2221 16.135C16.4305 15.9751 16.6053 15.7756 16.7366 15.5481C16.8678 15.3205 16.9529 15.0693 16.987 14.8088C17.021 14.5483 17.0034 14.2837 16.935 14.03L14.099 3.48202C13.961 2.96984 13.6254 2.53337 13.1658 2.26844C12.7063 2.00351 12.1604 1.93179 11.648 2.06902L6.232 3.51902C5.97833 3.58689 5.74053 3.70411 5.53219 3.86396C5.32386 4.02381 5.14907 4.22316 5.01784 4.45061C4.88661 4.67806 4.8015 4.92915 4.76738 5.18952C4.73326 5.44989 4.7508 5.71443 4.819 5.96802L7.655 16.517ZM9 6.25002C9 6.44893 8.92098 6.6397 8.78033 6.78035C8.63968 6.921 8.44892 7.00002 8.25 7.00002C8.05109 7.00002 7.86032 6.921 7.71967 6.78035C7.57902 6.6397 7.5 6.44893 7.5 6.25002C7.5 6.05111 7.57902 5.86034 7.71967 5.71969C7.86032 5.57904 8.05109 5.50002 8.25 5.50002C8.44892 5.50002 8.63968 5.57904 8.78033 5.71969C8.92098 5.86034 9 6.05111 9 6.25002Z" fill="rgb(69, 183, 228)"/>
</svg>
